<svg xmlns="http://www.w3.org/2000/svg" viewBox="0 0 1200 319.81"><defs><style>.cls-1{fill:#fff;}</style></defs><g id="katman_2" data-name="katman 2"><g id="katman_1-2" data-name="katman 1"><path class="cls-1" d="M480.91,40.36H356.7v68.19h114v39.66H356.7V248.76H311V0h170Z"/><path class="cls-1" d="M543.8,248.76H500.15V57H543.8l.61,43c0-31.12,29.56-43,68.52-43H623V98.25H608.66c-49.38,0-64.86,19-64.86,59.21Z"/><path class="cls-1" d="M818.5,184.42c-10.18,43.31-44.26,69.48-90.09,69.48-57,0-95.47-40.78-95.47-101.3,0-60.35,38-100.86,94.43-100.86,55.82,0,92,39.47,92,100.43,0,4.52-.18,9-.61,13.91H676.07c3.65,31.91,23.39,51,53.56,51,22.87,0,38.26-11.05,46.78-32.7Zm-42.35-49.65c-4.61-30.34-21.39-46.6-48.52-46.6-27.82,0-46.17,17.22-51,46.6Z"/><path class="cls-1" d="M1014.86,57,938.6,257.38c-16.26,43.21-43.39,62.43-87,62.43a142.77,142.77,0,0,1-21.74-1.74V281.64A134.73,134.73,0,0,0,848.26,283c22.61,0,36.43-8,44.52-26.61l.43-1.22L818.87,57h45.56L917,212.51,970.25,57Z"/><path class="cls-1" d="M1107.92,51.74c57.65,0,92.08,30.95,92.08,83.21V248.68h-43.65V219.21c3.25,20.9-37.3,34.69-76.26,34.69-40.52,0-67.56-22.87-67.56-57.22,0-35.65,29.13-57.3,77.22-57.3h66.6V135c0-29-18.69-46.78-49.3-46.78-31.13,0-45.3,14.52-45.3,37.3h-43.57C1018.18,80.17,1052.62,51.74,1107.92,51.74ZM1092.18,170c-23.65,0-36.17,8.17-36.17,23.74,0,16.35,14,25.48,39,25.48,35.65,0,61.3-18.35,61.3-43.74V170Z"/><path class="cls-1" d="M0,70.67V38A38,38,0,0,1,38,0H70.67C87.58,0,96.06,20.46,84.1,32.42L32.42,84.1C20.46,96.06,0,87.58,0,70.67Z"/><path class="cls-1" d="M88.94,140.27c0-3.35-.68-23.08,13.8-37.51S136.89,89,140.26,89l23.78,0c16.7,0,29.78-6.06,41.6-17.88l37.84-37.84C255.38,21.27,245.73.3,228.91.31L205.53,0C178.84,0,163,6.94,144.11,25.81L25.79,144.12c-19,19-25.85,34.56-25.79,61.4l.3,23.39c0,16.8,21,26.47,32.87,14.58L71,205.65c11.8-11.81,17.86-24.92,17.88-41.6Z"/></g></g></svg>